<mxfile host="app.diagrams.net" modified="2024-05-08T14:50:24.775Z" agent="Mozilla/5.0 (Windows NT 10.0; Win64; x64) AppleWebKit/537.36 (KHTML, like Gecko) Chrome/124.0.0.0 Safari/537.36" etag="OV57b0J0OcXEOuCYzbCT" version="24.3.1" type="device">
  <diagram name="Page-1" id="tFfbIJjMtwxDdrqEvl7l">
    <mxGraphModel dx="552" dy="1258" grid="1" gridSize="10" guides="1" tooltips="1" connect="1" arrows="1" fold="1" page="1" pageScale="1" pageWidth="827" pageHeight="1169" math="0" shadow="0">
      <root>
        <mxCell id="0" />
        <mxCell id="1" parent="0" />
        <mxCell id="hrOBMZw275Sl7oIyN0qI-202" value="&lt;font style=&quot;font-size: 13px;&quot;&gt;&amp;lt;&amp;lt;throws&amp;gt;&amp;gt;&lt;/font&gt;" style="edgeStyle=orthogonalEdgeStyle;rounded=0;orthogonalLoop=1;jettySize=auto;html=1;exitX=0.25;exitY=0;exitDx=0;exitDy=0;entryX=0.5;entryY=1;entryDx=0;entryDy=0;endArrow=open;endFill=0;endSize=10;dashed=1;" parent="1" source="hrOBMZw275Sl7oIyN0qI-113" target="hrOBMZw275Sl7oIyN0qI-184" edge="1">
          <mxGeometry x="-0.8047" relative="1" as="geometry">
            <Array as="points">
              <mxPoint x="2590" y="656" />
              <mxPoint x="2590" y="490" />
              <mxPoint x="2335" y="490" />
            </Array>
            <mxPoint as="offset" />
          </mxGeometry>
        </mxCell>
        <mxCell id="hrOBMZw275Sl7oIyN0qI-210" value="&lt;font style=&quot;font-size: 13px;&quot;&gt;&amp;lt;&amp;lt;throws&amp;gt;&amp;gt;&lt;/font&gt;" style="edgeStyle=orthogonalEdgeStyle;rounded=0;orthogonalLoop=1;jettySize=auto;html=1;exitX=0.5;exitY=0;exitDx=0;exitDy=0;entryX=0.5;entryY=1;entryDx=0;entryDy=0;endArrow=open;endFill=0;dashed=1;" parent="1" source="hrOBMZw275Sl7oIyN0qI-113" target="hrOBMZw275Sl7oIyN0qI-186" edge="1">
          <mxGeometry x="-0.5779" relative="1" as="geometry">
            <Array as="points">
              <mxPoint x="2655" y="400" />
              <mxPoint x="2585" y="400" />
            </Array>
            <mxPoint as="offset" />
          </mxGeometry>
        </mxCell>
        <mxCell id="hrOBMZw275Sl7oIyN0qI-211" value="&lt;font style=&quot;font-size: 13px;&quot;&gt;&amp;lt;&amp;lt;throws&amp;gt;&amp;gt;&lt;/font&gt;" style="edgeStyle=orthogonalEdgeStyle;rounded=0;orthogonalLoop=1;jettySize=auto;html=1;exitX=0.75;exitY=0;exitDx=0;exitDy=0;entryX=0.5;entryY=1;entryDx=0;entryDy=0;dashed=1;endArrow=open;endFill=0;" parent="1" source="hrOBMZw275Sl7oIyN0qI-113" target="hrOBMZw275Sl7oIyN0qI-188" edge="1">
          <mxGeometry x="-0.7355" relative="1" as="geometry">
            <Array as="points">
              <mxPoint x="2717" y="440" />
              <mxPoint x="2805" y="440" />
            </Array>
            <mxPoint as="offset" />
          </mxGeometry>
        </mxCell>
        <mxCell id="hrOBMZw275Sl7oIyN0qI-113" value="SnackShop" style="swimlane;fontStyle=1;align=center;verticalAlign=top;childLayout=stackLayout;horizontal=1;startSize=26;horizontalStack=0;resizeParent=1;resizeParentMax=0;resizeLast=0;collapsible=1;marginBottom=0;whiteSpace=wrap;html=1;" parent="1" vertex="1">
          <mxGeometry x="2530" y="656" width="250" height="398" as="geometry" />
        </mxCell>
        <mxCell id="hrOBMZw275Sl7oIyN0qI-114" value="- shopName: String" style="text;strokeColor=none;fillColor=none;align=left;verticalAlign=top;spacingLeft=4;spacingRight=4;overflow=hidden;rotatable=0;points=[[0,0.5],[1,0.5]];portConstraint=eastwest;whiteSpace=wrap;html=1;" parent="hrOBMZw275Sl7oIyN0qI-113" vertex="1">
          <mxGeometry y="26" width="250" height="26" as="geometry" />
        </mxCell>
        <mxCell id="hrOBMZw275Sl7oIyN0qI-115" value="- shopTurnover: int" style="text;strokeColor=none;fillColor=none;align=left;verticalAlign=top;spacingLeft=4;spacingRight=4;overflow=hidden;rotatable=0;points=[[0,0.5],[1,0.5]];portConstraint=eastwest;whiteSpace=wrap;html=1;" parent="hrOBMZw275Sl7oIyN0qI-113" vertex="1">
          <mxGeometry y="52" width="250" height="26" as="geometry" />
        </mxCell>
        <mxCell id="hrOBMZw275Sl7oIyN0qI-116" value="- customers: ArrayList&amp;lt;Customer&amp;gt;" style="text;strokeColor=none;fillColor=none;align=left;verticalAlign=top;spacingLeft=4;spacingRight=4;overflow=hidden;rotatable=0;points=[[0,0.5],[1,0.5]];portConstraint=eastwest;whiteSpace=wrap;html=1;" parent="hrOBMZw275Sl7oIyN0qI-113" vertex="1">
          <mxGeometry y="78" width="250" height="26" as="geometry" />
        </mxCell>
        <mxCell id="hrOBMZw275Sl7oIyN0qI-117" value="- snacks: ArrayList&amp;lt;Snack&amp;gt;" style="text;strokeColor=none;fillColor=none;align=left;verticalAlign=top;spacingLeft=4;spacingRight=4;overflow=hidden;rotatable=0;points=[[0,0.5],[1,0.5]];portConstraint=eastwest;whiteSpace=wrap;html=1;" parent="hrOBMZw275Sl7oIyN0qI-113" vertex="1">
          <mxGeometry y="104" width="250" height="26" as="geometry" />
        </mxCell>
        <mxCell id="hrOBMZw275Sl7oIyN0qI-118" value="" style="line;strokeWidth=1;fillColor=none;align=left;verticalAlign=middle;spacingTop=-1;spacingLeft=3;spacingRight=3;rotatable=0;labelPosition=right;points=[];portConstraint=eastwest;strokeColor=inherit;" parent="hrOBMZw275Sl7oIyN0qI-113" vertex="1">
          <mxGeometry y="130" width="250" height="8" as="geometry" />
        </mxCell>
        <mxCell id="hrOBMZw275Sl7oIyN0qI-119" value="+ SnackShop(String)" style="text;strokeColor=none;fillColor=none;align=left;verticalAlign=top;spacingLeft=4;spacingRight=4;overflow=hidden;rotatable=0;points=[[0,0.5],[1,0.5]];portConstraint=eastwest;whiteSpace=wrap;html=1;" parent="hrOBMZw275Sl7oIyN0qI-113" vertex="1">
          <mxGeometry y="138" width="250" height="26" as="geometry" />
        </mxCell>
        <mxCell id="hrOBMZw275Sl7oIyN0qI-120" value="+ toString(): String" style="text;strokeColor=none;fillColor=none;align=left;verticalAlign=top;spacingLeft=4;spacingRight=4;overflow=hidden;rotatable=0;points=[[0,0.5],[1,0.5]];portConstraint=eastwest;whiteSpace=wrap;html=1;" parent="hrOBMZw275Sl7oIyN0qI-113" vertex="1">
          <mxGeometry y="164" width="250" height="26" as="geometry" />
        </mxCell>
        <mxCell id="hrOBMZw275Sl7oIyN0qI-121" value="+ addCustomer(Customer): void" style="text;strokeColor=none;fillColor=none;align=left;verticalAlign=top;spacingLeft=4;spacingRight=4;overflow=hidden;rotatable=0;points=[[0,0.5],[1,0.5]];portConstraint=eastwest;whiteSpace=wrap;html=1;" parent="hrOBMZw275Sl7oIyN0qI-113" vertex="1">
          <mxGeometry y="190" width="250" height="26" as="geometry" />
        </mxCell>
        <mxCell id="hrOBMZw275Sl7oIyN0qI-122" value="+ addSnack(Snack): void" style="text;strokeColor=none;fillColor=none;align=left;verticalAlign=top;spacingLeft=4;spacingRight=4;overflow=hidden;rotatable=0;points=[[0,0.5],[1,0.5]];portConstraint=eastwest;whiteSpace=wrap;html=1;" parent="hrOBMZw275Sl7oIyN0qI-113" vertex="1">
          <mxGeometry y="216" width="250" height="26" as="geometry" />
        </mxCell>
        <mxCell id="hrOBMZw275Sl7oIyN0qI-123" value="+ processPurchase(String, String): Boolean" style="text;strokeColor=none;fillColor=none;align=left;verticalAlign=top;spacingLeft=4;spacingRight=4;overflow=hidden;rotatable=0;points=[[0,0.5],[1,0.5]];portConstraint=eastwest;whiteSpace=wrap;html=1;" parent="hrOBMZw275Sl7oIyN0qI-113" vertex="1">
          <mxGeometry y="242" width="250" height="26" as="geometry" />
        </mxCell>
        <mxCell id="hrOBMZw275Sl7oIyN0qI-124" value="+ getCustomer(String): Customer" style="text;strokeColor=none;fillColor=none;align=left;verticalAlign=top;spacingLeft=4;spacingRight=4;overflow=hidden;rotatable=0;points=[[0,0.5],[1,0.5]];portConstraint=eastwest;whiteSpace=wrap;html=1;" parent="hrOBMZw275Sl7oIyN0qI-113" vertex="1">
          <mxGeometry y="268" width="250" height="26" as="geometry" />
        </mxCell>
        <mxCell id="hrOBMZw275Sl7oIyN0qI-125" value="+ getSnack(String): Snack" style="text;strokeColor=none;fillColor=none;align=left;verticalAlign=top;spacingLeft=4;spacingRight=4;overflow=hidden;rotatable=0;points=[[0,0.5],[1,0.5]];portConstraint=eastwest;whiteSpace=wrap;html=1;" parent="hrOBMZw275Sl7oIyN0qI-113" vertex="1">
          <mxGeometry y="294" width="250" height="26" as="geometry" />
        </mxCell>
        <mxCell id="hrOBMZw275Sl7oIyN0qI-126" value="+ findLargestBasePrice(): int" style="text;strokeColor=none;fillColor=none;align=left;verticalAlign=top;spacingLeft=4;spacingRight=4;overflow=hidden;rotatable=0;points=[[0,0.5],[1,0.5]];portConstraint=eastwest;whiteSpace=wrap;html=1;" parent="hrOBMZw275Sl7oIyN0qI-113" vertex="1">
          <mxGeometry y="320" width="250" height="26" as="geometry" />
        </mxCell>
        <mxCell id="hrOBMZw275Sl7oIyN0qI-127" value="+ countNegativeAccounts(): int" style="text;strokeColor=none;fillColor=none;align=left;verticalAlign=top;spacingLeft=4;spacingRight=4;overflow=hidden;rotatable=0;points=[[0,0.5],[1,0.5]];portConstraint=eastwest;whiteSpace=wrap;html=1;" parent="hrOBMZw275Sl7oIyN0qI-113" vertex="1">
          <mxGeometry y="346" width="250" height="26" as="geometry" />
        </mxCell>
        <mxCell id="hrOBMZw275Sl7oIyN0qI-128" value="+&amp;nbsp;calculateMedianCustomerBalance(): int" style="text;strokeColor=none;fillColor=none;align=left;verticalAlign=top;spacingLeft=4;spacingRight=4;overflow=hidden;rotatable=0;points=[[0,0.5],[1,0.5]];portConstraint=eastwest;whiteSpace=wrap;html=1;" parent="hrOBMZw275Sl7oIyN0qI-113" vertex="1">
          <mxGeometry y="372" width="250" height="26" as="geometry" />
        </mxCell>
        <mxCell id="hrOBMZw275Sl7oIyN0qI-129" style="edgeStyle=orthogonalEdgeStyle;rounded=0;orthogonalLoop=1;jettySize=auto;html=1;exitX=0.5;exitY=0;exitDx=0;exitDy=0;endArrow=block;endFill=0;" parent="1" source="hrOBMZw275Sl7oIyN0qI-131" target="hrOBMZw275Sl7oIyN0qI-172" edge="1">
          <mxGeometry relative="1" as="geometry" />
        </mxCell>
        <mxCell id="hrOBMZw275Sl7oIyN0qI-131" value="StudentCustomer" style="swimlane;fontStyle=1;align=center;verticalAlign=top;childLayout=stackLayout;horizontal=1;startSize=30;horizontalStack=0;resizeParent=1;resizeParentMax=0;resizeLast=0;collapsible=1;marginBottom=0;whiteSpace=wrap;html=1;" parent="1" vertex="1">
          <mxGeometry x="1780" y="890" width="230" height="170" as="geometry" />
        </mxCell>
        <mxCell id="hrOBMZw275Sl7oIyN0qI-132" value="" style="line;strokeWidth=1;fillColor=none;align=left;verticalAlign=middle;spacingTop=-1;spacingLeft=3;spacingRight=3;rotatable=0;labelPosition=right;points=[];portConstraint=eastwest;strokeColor=inherit;" parent="hrOBMZw275Sl7oIyN0qI-131" vertex="1">
          <mxGeometry y="30" width="230" height="10" as="geometry" />
        </mxCell>
        <mxCell id="hrOBMZw275Sl7oIyN0qI-133" value="+ StudentCustomer(String, String, int)" style="text;strokeColor=none;fillColor=none;align=left;verticalAlign=top;spacingLeft=4;spacingRight=4;overflow=hidden;rotatable=0;points=[[0,0.5],[1,0.5]];portConstraint=eastwest;whiteSpace=wrap;html=1;" parent="hrOBMZw275Sl7oIyN0qI-131" vertex="1">
          <mxGeometry y="40" width="230" height="26" as="geometry" />
        </mxCell>
        <mxCell id="hrOBMZw275Sl7oIyN0qI-134" value="+ StudentCustomer(String, String)" style="text;strokeColor=none;fillColor=none;align=left;verticalAlign=top;spacingLeft=4;spacingRight=4;overflow=hidden;rotatable=0;points=[[0,0.5],[1,0.5]];portConstraint=eastwest;whiteSpace=wrap;html=1;" parent="hrOBMZw275Sl7oIyN0qI-131" vertex="1">
          <mxGeometry y="66" width="230" height="26" as="geometry" />
        </mxCell>
        <mxCell id="hrOBMZw275Sl7oIyN0qI-135" value="+ toString(): String" style="text;strokeColor=none;fillColor=none;align=left;verticalAlign=top;spacingLeft=4;spacingRight=4;overflow=hidden;rotatable=0;points=[[0,0.5],[1,0.5]];portConstraint=eastwest;whiteSpace=wrap;html=1;" parent="hrOBMZw275Sl7oIyN0qI-131" vertex="1">
          <mxGeometry y="92" width="230" height="26" as="geometry" />
        </mxCell>
        <mxCell id="hrOBMZw275Sl7oIyN0qI-136" value="+ chargeAccount(int): int" style="text;strokeColor=none;fillColor=none;align=left;verticalAlign=top;spacingLeft=4;spacingRight=4;overflow=hidden;rotatable=0;points=[[0,0.5],[1,0.5]];portConstraint=eastwest;whiteSpace=wrap;html=1;" parent="hrOBMZw275Sl7oIyN0qI-131" vertex="1">
          <mxGeometry y="118" width="230" height="26" as="geometry" />
        </mxCell>
        <mxCell id="hrOBMZw275Sl7oIyN0qI-137" value="&lt;u&gt;+ getDiscountAmount(): double&lt;/u&gt;" style="text;strokeColor=none;fillColor=none;align=left;verticalAlign=top;spacingLeft=4;spacingRight=4;overflow=hidden;rotatable=0;points=[[0,0.5],[1,0.5]];portConstraint=eastwest;whiteSpace=wrap;html=1;" parent="hrOBMZw275Sl7oIyN0qI-131" vertex="1">
          <mxGeometry y="144" width="230" height="26" as="geometry" />
        </mxCell>
        <mxCell id="hrOBMZw275Sl7oIyN0qI-138" style="edgeStyle=orthogonalEdgeStyle;rounded=0;orthogonalLoop=1;jettySize=auto;html=1;exitX=0.5;exitY=0;exitDx=0;exitDy=0;endArrow=block;endFill=0;startSize=6;" parent="1" source="hrOBMZw275Sl7oIyN0qI-140" target="hrOBMZw275Sl7oIyN0qI-172" edge="1">
          <mxGeometry relative="1" as="geometry" />
        </mxCell>
        <mxCell id="hrOBMZw275Sl7oIyN0qI-140" value="StaffCustomer" style="swimlane;fontStyle=1;align=center;verticalAlign=top;childLayout=stackLayout;horizontal=1;startSize=26;horizontalStack=0;resizeParent=1;resizeParentMax=0;resizeLast=0;collapsible=1;marginBottom=0;whiteSpace=wrap;html=1;" parent="1" vertex="1">
          <mxGeometry x="2050" y="890" width="260" height="164" as="geometry" />
        </mxCell>
        <mxCell id="hrOBMZw275Sl7oIyN0qI-141" value="- school: String" style="text;strokeColor=none;fillColor=none;align=left;verticalAlign=top;spacingLeft=4;spacingRight=4;overflow=hidden;rotatable=0;points=[[0,0.5],[1,0.5]];portConstraint=eastwest;whiteSpace=wrap;html=1;" parent="hrOBMZw275Sl7oIyN0qI-140" vertex="1">
          <mxGeometry y="26" width="260" height="26" as="geometry" />
        </mxCell>
        <mxCell id="hrOBMZw275Sl7oIyN0qI-142" value="" style="line;strokeWidth=1;fillColor=none;align=left;verticalAlign=middle;spacingTop=-1;spacingLeft=3;spacingRight=3;rotatable=0;labelPosition=right;points=[];portConstraint=eastwest;strokeColor=inherit;" parent="hrOBMZw275Sl7oIyN0qI-140" vertex="1">
          <mxGeometry y="52" width="260" height="8" as="geometry" />
        </mxCell>
        <mxCell id="hrOBMZw275Sl7oIyN0qI-143" value="+ StaffCustomer(String, String, int, String)" style="text;strokeColor=none;fillColor=none;align=left;verticalAlign=top;spacingLeft=4;spacingRight=4;overflow=hidden;rotatable=0;points=[[0,0.5],[1,0.5]];portConstraint=eastwest;whiteSpace=wrap;html=1;" parent="hrOBMZw275Sl7oIyN0qI-140" vertex="1">
          <mxGeometry y="60" width="260" height="26" as="geometry" />
        </mxCell>
        <mxCell id="hrOBMZw275Sl7oIyN0qI-144" value="+ StaffCustomer(String, String, String)" style="text;strokeColor=none;fillColor=none;align=left;verticalAlign=top;spacingLeft=4;spacingRight=4;overflow=hidden;rotatable=0;points=[[0,0.5],[1,0.5]];portConstraint=eastwest;whiteSpace=wrap;html=1;" parent="hrOBMZw275Sl7oIyN0qI-140" vertex="1">
          <mxGeometry y="86" width="260" height="26" as="geometry" />
        </mxCell>
        <mxCell id="hrOBMZw275Sl7oIyN0qI-145" value="+ toString(): String" style="text;strokeColor=none;fillColor=none;align=left;verticalAlign=top;spacingLeft=4;spacingRight=4;overflow=hidden;rotatable=0;points=[[0,0.5],[1,0.5]];portConstraint=eastwest;whiteSpace=wrap;html=1;" parent="hrOBMZw275Sl7oIyN0qI-140" vertex="1">
          <mxGeometry y="112" width="260" height="26" as="geometry" />
        </mxCell>
        <mxCell id="hrOBMZw275Sl7oIyN0qI-146" value="+ chargeAccount(int): int" style="text;strokeColor=none;fillColor=none;align=left;verticalAlign=top;spacingLeft=4;spacingRight=4;overflow=hidden;rotatable=0;points=[[0,0.5],[1,0.5]];portConstraint=eastwest;whiteSpace=wrap;html=1;" parent="hrOBMZw275Sl7oIyN0qI-140" vertex="1">
          <mxGeometry y="138" width="260" height="26" as="geometry" />
        </mxCell>
        <mxCell id="hrOBMZw275Sl7oIyN0qI-147" style="edgeStyle=orthogonalEdgeStyle;rounded=0;orthogonalLoop=1;jettySize=auto;html=1;exitX=0.5;exitY=0;exitDx=0;exitDy=0;endArrow=block;endFill=0;" parent="1" source="hrOBMZw275Sl7oIyN0qI-148" target="hrOBMZw275Sl7oIyN0qI-155" edge="1">
          <mxGeometry relative="1" as="geometry" />
        </mxCell>
        <mxCell id="hrOBMZw275Sl7oIyN0qI-148" value="Food" style="swimlane;fontStyle=1;align=center;verticalAlign=top;childLayout=stackLayout;horizontal=1;startSize=26;horizontalStack=0;resizeParent=1;resizeParentMax=0;resizeLast=0;collapsible=1;marginBottom=0;whiteSpace=wrap;html=1;" parent="1" vertex="1">
          <mxGeometry x="3070" y="800" width="210" height="164" as="geometry" />
        </mxCell>
        <mxCell id="hrOBMZw275Sl7oIyN0qI-149" value="- hotFood: Boolean" style="text;strokeColor=none;fillColor=none;align=left;verticalAlign=top;spacingLeft=4;spacingRight=4;overflow=hidden;rotatable=0;points=[[0,0.5],[1,0.5]];portConstraint=eastwest;whiteSpace=wrap;html=1;" parent="hrOBMZw275Sl7oIyN0qI-148" vertex="1">
          <mxGeometry y="26" width="210" height="26" as="geometry" />
        </mxCell>
        <mxCell id="hrOBMZw275Sl7oIyN0qI-150" value="+ surchargePercentage: double" style="text;strokeColor=none;fillColor=none;align=left;verticalAlign=top;spacingLeft=4;spacingRight=4;overflow=hidden;rotatable=0;points=[[0,0.5],[1,0.5]];portConstraint=eastwest;whiteSpace=wrap;html=1;" parent="hrOBMZw275Sl7oIyN0qI-148" vertex="1">
          <mxGeometry y="52" width="210" height="26" as="geometry" />
        </mxCell>
        <mxCell id="hrOBMZw275Sl7oIyN0qI-151" value="" style="line;strokeWidth=1;fillColor=none;align=left;verticalAlign=middle;spacingTop=-1;spacingLeft=3;spacingRight=3;rotatable=0;labelPosition=right;points=[];portConstraint=eastwest;strokeColor=inherit;" parent="hrOBMZw275Sl7oIyN0qI-148" vertex="1">
          <mxGeometry y="78" width="210" height="8" as="geometry" />
        </mxCell>
        <mxCell id="hrOBMZw275Sl7oIyN0qI-152" value="+ Food(String, String, Boolean, int)" style="text;strokeColor=none;fillColor=none;align=left;verticalAlign=top;spacingLeft=4;spacingRight=4;overflow=hidden;rotatable=0;points=[[0,0.5],[1,0.5]];portConstraint=eastwest;whiteSpace=wrap;html=1;" parent="hrOBMZw275Sl7oIyN0qI-148" vertex="1">
          <mxGeometry y="86" width="210" height="26" as="geometry" />
        </mxCell>
        <mxCell id="hrOBMZw275Sl7oIyN0qI-153" value="+ toString(): String" style="text;strokeColor=none;fillColor=none;align=left;verticalAlign=top;spacingLeft=4;spacingRight=4;overflow=hidden;rotatable=0;points=[[0,0.5],[1,0.5]];portConstraint=eastwest;whiteSpace=wrap;html=1;" parent="hrOBMZw275Sl7oIyN0qI-148" vertex="1">
          <mxGeometry y="112" width="210" height="26" as="geometry" />
        </mxCell>
        <mxCell id="hrOBMZw275Sl7oIyN0qI-154" value="+ calculatePrice(int): int" style="text;strokeColor=none;fillColor=none;align=left;verticalAlign=top;spacingLeft=4;spacingRight=4;overflow=hidden;rotatable=0;points=[[0,0.5],[1,0.5]];portConstraint=eastwest;whiteSpace=wrap;html=1;" parent="hrOBMZw275Sl7oIyN0qI-148" vertex="1">
          <mxGeometry y="138" width="210" height="26" as="geometry" />
        </mxCell>
        <mxCell id="hrOBMZw275Sl7oIyN0qI-206" value="&lt;font style=&quot;font-size: 13px;&quot;&gt;&amp;lt;&amp;lt;throws&amp;gt;&amp;gt;&lt;/font&gt;" style="edgeStyle=orthogonalEdgeStyle;rounded=0;orthogonalLoop=1;jettySize=auto;html=1;exitX=0.5;exitY=0;exitDx=0;exitDy=0;entryX=0.5;entryY=1;entryDx=0;entryDy=0;dashed=1;endArrow=open;endFill=0;endSize=10;" parent="1" source="hrOBMZw275Sl7oIyN0qI-155" target="hrOBMZw275Sl7oIyN0qI-188" edge="1">
          <mxGeometry x="-0.7522" relative="1" as="geometry">
            <Array as="points">
              <mxPoint x="3030" y="440" />
              <mxPoint x="2805" y="440" />
            </Array>
            <mxPoint as="offset" />
          </mxGeometry>
        </mxCell>
        <mxCell id="hrOBMZw275Sl7oIyN0qI-155" value="Snack" style="swimlane;fontStyle=3;align=center;verticalAlign=top;childLayout=stackLayout;horizontal=1;startSize=26;horizontalStack=0;resizeParent=1;resizeParentMax=0;resizeLast=0;collapsible=1;marginBottom=0;whiteSpace=wrap;html=1;" parent="1" vertex="1">
          <mxGeometry x="2950" y="560" width="160" height="164" as="geometry" />
        </mxCell>
        <mxCell id="hrOBMZw275Sl7oIyN0qI-156" value="# snackID: String" style="text;strokeColor=none;fillColor=none;align=left;verticalAlign=top;spacingLeft=4;spacingRight=4;overflow=hidden;rotatable=0;points=[[0,0.5],[1,0.5]];portConstraint=eastwest;whiteSpace=wrap;html=1;fontStyle=2" parent="hrOBMZw275Sl7oIyN0qI-155" vertex="1">
          <mxGeometry y="26" width="160" height="26" as="geometry" />
        </mxCell>
        <mxCell id="hrOBMZw275Sl7oIyN0qI-157" value="# name: String" style="text;strokeColor=none;fillColor=none;align=left;verticalAlign=top;spacingLeft=4;spacingRight=4;overflow=hidden;rotatable=0;points=[[0,0.5],[1,0.5]];portConstraint=eastwest;whiteSpace=wrap;html=1;fontStyle=2" parent="hrOBMZw275Sl7oIyN0qI-155" vertex="1">
          <mxGeometry y="52" width="160" height="26" as="geometry" />
        </mxCell>
        <mxCell id="hrOBMZw275Sl7oIyN0qI-158" value="# basePrice: int" style="text;strokeColor=none;fillColor=none;align=left;verticalAlign=top;spacingLeft=4;spacingRight=4;overflow=hidden;rotatable=0;points=[[0,0.5],[1,0.5]];portConstraint=eastwest;whiteSpace=wrap;html=1;fontStyle=2" parent="hrOBMZw275Sl7oIyN0qI-155" vertex="1">
          <mxGeometry y="78" width="160" height="26" as="geometry" />
        </mxCell>
        <mxCell id="hrOBMZw275Sl7oIyN0qI-159" value="" style="line;strokeWidth=1;fillColor=none;align=left;verticalAlign=middle;spacingTop=-1;spacingLeft=3;spacingRight=3;rotatable=0;labelPosition=right;points=[];portConstraint=eastwest;strokeColor=inherit;" parent="hrOBMZw275Sl7oIyN0qI-155" vertex="1">
          <mxGeometry y="104" width="160" height="8" as="geometry" />
        </mxCell>
        <mxCell id="hrOBMZw275Sl7oIyN0qI-160" value="+ Snack(String, String, int)" style="text;strokeColor=none;fillColor=none;align=left;verticalAlign=top;spacingLeft=4;spacingRight=4;overflow=hidden;rotatable=0;points=[[0,0.5],[1,0.5]];portConstraint=eastwest;whiteSpace=wrap;html=1;fontStyle=2" parent="hrOBMZw275Sl7oIyN0qI-155" vertex="1">
          <mxGeometry y="112" width="160" height="26" as="geometry" />
        </mxCell>
        <mxCell id="hrOBMZw275Sl7oIyN0qI-161" value="+ calculatePrice(): int" style="text;strokeColor=none;fillColor=none;align=left;verticalAlign=top;spacingLeft=4;spacingRight=4;overflow=hidden;rotatable=0;points=[[0,0.5],[1,0.5]];portConstraint=eastwest;whiteSpace=wrap;html=1;fontStyle=2" parent="hrOBMZw275Sl7oIyN0qI-155" vertex="1">
          <mxGeometry y="138" width="160" height="26" as="geometry" />
        </mxCell>
        <mxCell id="hrOBMZw275Sl7oIyN0qI-162" style="edgeStyle=orthogonalEdgeStyle;rounded=0;orthogonalLoop=1;jettySize=auto;html=1;exitX=0.5;exitY=0;exitDx=0;exitDy=0;endArrow=block;endFill=0;" parent="1" source="hrOBMZw275Sl7oIyN0qI-163" target="hrOBMZw275Sl7oIyN0qI-155" edge="1">
          <mxGeometry relative="1" as="geometry" />
        </mxCell>
        <mxCell id="hrOBMZw275Sl7oIyN0qI-163" value="Drink" style="swimlane;fontStyle=1;align=center;verticalAlign=top;childLayout=stackLayout;horizontal=1;startSize=26;horizontalStack=0;resizeParent=1;resizeParentMax=0;resizeLast=0;collapsible=1;marginBottom=0;whiteSpace=wrap;html=1;" parent="1" vertex="1">
          <mxGeometry x="2840" y="800" width="190" height="190" as="geometry" />
        </mxCell>
        <mxCell id="hrOBMZw275Sl7oIyN0qI-164" value="- sugarContent: String" style="text;strokeColor=none;fillColor=none;align=left;verticalAlign=top;spacingLeft=4;spacingRight=4;overflow=hidden;rotatable=0;points=[[0,0.5],[1,0.5]];portConstraint=eastwest;whiteSpace=wrap;html=1;" parent="hrOBMZw275Sl7oIyN0qI-163" vertex="1">
          <mxGeometry y="26" width="190" height="26" as="geometry" />
        </mxCell>
        <mxCell id="hrOBMZw275Sl7oIyN0qI-165" value="" style="line;strokeWidth=1;fillColor=none;align=left;verticalAlign=middle;spacingTop=-1;spacingLeft=3;spacingRight=3;rotatable=0;labelPosition=right;points=[];portConstraint=eastwest;strokeColor=inherit;" parent="hrOBMZw275Sl7oIyN0qI-163" vertex="1">
          <mxGeometry y="52" width="190" height="8" as="geometry" />
        </mxCell>
        <mxCell id="hrOBMZw275Sl7oIyN0qI-166" value="+ Drink(String, String, String, int)" style="text;strokeColor=none;fillColor=none;align=left;verticalAlign=top;spacingLeft=4;spacingRight=4;overflow=hidden;rotatable=0;points=[[0,0.5],[1,0.5]];portConstraint=eastwest;whiteSpace=wrap;html=1;" parent="hrOBMZw275Sl7oIyN0qI-163" vertex="1">
          <mxGeometry y="60" width="190" height="26" as="geometry" />
        </mxCell>
        <mxCell id="hrOBMZw275Sl7oIyN0qI-167" value="+ Drink(String, String, int)" style="text;strokeColor=none;fillColor=none;align=left;verticalAlign=top;spacingLeft=4;spacingRight=4;overflow=hidden;rotatable=0;points=[[0,0.5],[1,0.5]];portConstraint=eastwest;whiteSpace=wrap;html=1;" parent="hrOBMZw275Sl7oIyN0qI-163" vertex="1">
          <mxGeometry y="86" width="190" height="26" as="geometry" />
        </mxCell>
        <mxCell id="hrOBMZw275Sl7oIyN0qI-168" value="+ toString(): String" style="text;strokeColor=none;fillColor=none;align=left;verticalAlign=top;spacingLeft=4;spacingRight=4;overflow=hidden;rotatable=0;points=[[0,0.5],[1,0.5]];portConstraint=eastwest;whiteSpace=wrap;html=1;" parent="hrOBMZw275Sl7oIyN0qI-163" vertex="1">
          <mxGeometry y="112" width="190" height="26" as="geometry" />
        </mxCell>
        <mxCell id="hrOBMZw275Sl7oIyN0qI-169" value="+ calculatePrice(int): int" style="text;strokeColor=none;fillColor=none;align=left;verticalAlign=top;spacingLeft=4;spacingRight=4;overflow=hidden;rotatable=0;points=[[0,0.5],[1,0.5]];portConstraint=eastwest;whiteSpace=wrap;html=1;" parent="hrOBMZw275Sl7oIyN0qI-163" vertex="1">
          <mxGeometry y="138" width="190" height="26" as="geometry" />
        </mxCell>
        <mxCell id="hrOBMZw275Sl7oIyN0qI-170" value="+ field: type" style="text;strokeColor=none;fillColor=none;align=left;verticalAlign=top;spacingLeft=4;spacingRight=4;overflow=hidden;rotatable=0;points=[[0,0.5],[1,0.5]];portConstraint=eastwest;whiteSpace=wrap;html=1;" parent="hrOBMZw275Sl7oIyN0qI-163" vertex="1">
          <mxGeometry y="164" width="190" height="26" as="geometry" />
        </mxCell>
        <mxCell id="hrOBMZw275Sl7oIyN0qI-199" value="&lt;font style=&quot;font-size: 13px;&quot;&gt;&amp;lt;&amp;lt;throws&amp;gt;&amp;gt;&lt;/font&gt;" style="edgeStyle=orthogonalEdgeStyle;rounded=0;orthogonalLoop=1;jettySize=auto;html=1;exitX=0.75;exitY=0;exitDx=0;exitDy=0;entryX=0.5;entryY=1;entryDx=0;entryDy=0;dashed=1;endArrow=open;endFill=0;endSize=10;" parent="1" source="hrOBMZw275Sl7oIyN0qI-172" target="hrOBMZw275Sl7oIyN0qI-184" edge="1">
          <mxGeometry x="-0.7207" relative="1" as="geometry">
            <Array as="points">
              <mxPoint x="2110" y="550" />
              <mxPoint x="2110" y="440" />
              <mxPoint x="2335" y="440" />
            </Array>
            <mxPoint as="offset" />
          </mxGeometry>
        </mxCell>
        <mxCell id="hrOBMZw275Sl7oIyN0qI-172" value="Customer" style="swimlane;fontStyle=1;align=center;verticalAlign=top;childLayout=stackLayout;horizontal=1;startSize=26;horizontalStack=0;resizeParent=1;resizeParentMax=0;resizeLast=0;collapsible=1;marginBottom=0;whiteSpace=wrap;html=1;" parent="1" vertex="1">
          <mxGeometry x="1910" y="550" width="230" height="242" as="geometry" />
        </mxCell>
        <mxCell id="hrOBMZw275Sl7oIyN0qI-173" value="# accountID: String" style="text;strokeColor=none;fillColor=none;align=left;verticalAlign=top;spacingLeft=4;spacingRight=4;overflow=hidden;rotatable=0;points=[[0,0.5],[1,0.5]];portConstraint=eastwest;whiteSpace=wrap;html=1;" parent="hrOBMZw275Sl7oIyN0qI-172" vertex="1">
          <mxGeometry y="26" width="230" height="26" as="geometry" />
        </mxCell>
        <mxCell id="hrOBMZw275Sl7oIyN0qI-174" value="# name: String" style="text;strokeColor=none;fillColor=none;align=left;verticalAlign=top;spacingLeft=4;spacingRight=4;overflow=hidden;rotatable=0;points=[[0,0.5],[1,0.5]];portConstraint=eastwest;whiteSpace=wrap;html=1;" parent="hrOBMZw275Sl7oIyN0qI-172" vertex="1">
          <mxGeometry y="52" width="230" height="26" as="geometry" />
        </mxCell>
        <mxCell id="hrOBMZw275Sl7oIyN0qI-175" value="# accountBalance: int" style="text;strokeColor=none;fillColor=none;align=left;verticalAlign=top;spacingLeft=4;spacingRight=4;overflow=hidden;rotatable=0;points=[[0,0.5],[1,0.5]];portConstraint=eastwest;whiteSpace=wrap;html=1;" parent="hrOBMZw275Sl7oIyN0qI-172" vertex="1">
          <mxGeometry y="78" width="230" height="26" as="geometry" />
        </mxCell>
        <mxCell id="hrOBMZw275Sl7oIyN0qI-176" value="" style="line;strokeWidth=1;fillColor=none;align=left;verticalAlign=middle;spacingTop=-1;spacingLeft=3;spacingRight=3;rotatable=0;labelPosition=right;points=[];portConstraint=eastwest;strokeColor=inherit;" parent="hrOBMZw275Sl7oIyN0qI-172" vertex="1">
          <mxGeometry y="104" width="230" height="8" as="geometry" />
        </mxCell>
        <mxCell id="hrOBMZw275Sl7oIyN0qI-177" value="+ Customer(String, String, int)" style="text;strokeColor=none;fillColor=none;align=left;verticalAlign=top;spacingLeft=4;spacingRight=4;overflow=hidden;rotatable=0;points=[[0,0.5],[1,0.5]];portConstraint=eastwest;whiteSpace=wrap;html=1;" parent="hrOBMZw275Sl7oIyN0qI-172" vertex="1">
          <mxGeometry y="112" width="230" height="26" as="geometry" />
        </mxCell>
        <mxCell id="hrOBMZw275Sl7oIyN0qI-178" value="+ Customer(String, String)" style="text;strokeColor=none;fillColor=none;align=left;verticalAlign=top;spacingLeft=4;spacingRight=4;overflow=hidden;rotatable=0;points=[[0,0.5],[1,0.5]];portConstraint=eastwest;whiteSpace=wrap;html=1;" parent="hrOBMZw275Sl7oIyN0qI-172" vertex="1">
          <mxGeometry y="138" width="230" height="26" as="geometry" />
        </mxCell>
        <mxCell id="hrOBMZw275Sl7oIyN0qI-179" value="+ toString(): String" style="text;strokeColor=none;fillColor=none;align=left;verticalAlign=top;spacingLeft=4;spacingRight=4;overflow=hidden;rotatable=0;points=[[0,0.5],[1,0.5]];portConstraint=eastwest;whiteSpace=wrap;html=1;" parent="hrOBMZw275Sl7oIyN0qI-172" vertex="1">
          <mxGeometry y="164" width="230" height="26" as="geometry" />
        </mxCell>
        <mxCell id="hrOBMZw275Sl7oIyN0qI-180" value="+ addFunds(int): void" style="text;strokeColor=none;fillColor=none;align=left;verticalAlign=top;spacingLeft=4;spacingRight=4;overflow=hidden;rotatable=0;points=[[0,0.5],[1,0.5]];portConstraint=eastwest;whiteSpace=wrap;html=1;" parent="hrOBMZw275Sl7oIyN0qI-172" vertex="1">
          <mxGeometry y="190" width="230" height="26" as="geometry" />
        </mxCell>
        <mxCell id="hrOBMZw275Sl7oIyN0qI-181" value="+ chargeAccount(int): int" style="text;strokeColor=none;fillColor=none;align=left;verticalAlign=top;spacingLeft=4;spacingRight=4;overflow=hidden;rotatable=0;points=[[0,0.5],[1,0.5]];portConstraint=eastwest;whiteSpace=wrap;html=1;" parent="hrOBMZw275Sl7oIyN0qI-172" vertex="1">
          <mxGeometry y="216" width="230" height="26" as="geometry" />
        </mxCell>
        <mxCell id="hrOBMZw275Sl7oIyN0qI-182" value="Java.lang.Exception" style="html=1;whiteSpace=wrap;" parent="1" vertex="1">
          <mxGeometry x="2521.5" y="140" width="127" height="50" as="geometry" />
        </mxCell>
        <mxCell id="hrOBMZw275Sl7oIyN0qI-183" style="edgeStyle=orthogonalEdgeStyle;rounded=0;orthogonalLoop=1;jettySize=auto;html=1;exitX=0.5;exitY=0;exitDx=0;exitDy=0;entryX=0.5;entryY=1;entryDx=0;entryDy=0;endArrow=block;endFill=0;" parent="1" source="hrOBMZw275Sl7oIyN0qI-184" target="hrOBMZw275Sl7oIyN0qI-182" edge="1">
          <mxGeometry relative="1" as="geometry" />
        </mxCell>
        <mxCell id="hrOBMZw275Sl7oIyN0qI-184" value="InvalidCustomerException" style="html=1;whiteSpace=wrap;" parent="1" vertex="1">
          <mxGeometry x="2250" y="280" width="170" height="50" as="geometry" />
        </mxCell>
        <mxCell id="hrOBMZw275Sl7oIyN0qI-185" style="edgeStyle=orthogonalEdgeStyle;rounded=0;orthogonalLoop=1;jettySize=auto;html=1;exitX=0.5;exitY=0;exitDx=0;exitDy=0;entryX=0.5;entryY=1;entryDx=0;entryDy=0;endArrow=block;endFill=0;" parent="1" source="hrOBMZw275Sl7oIyN0qI-186" target="hrOBMZw275Sl7oIyN0qI-182" edge="1">
          <mxGeometry relative="1" as="geometry" />
        </mxCell>
        <mxCell id="hrOBMZw275Sl7oIyN0qI-186" value="InsufficientBalanceException" style="html=1;whiteSpace=wrap;" parent="1" vertex="1">
          <mxGeometry x="2500" y="280" width="170" height="50" as="geometry" />
        </mxCell>
        <mxCell id="hrOBMZw275Sl7oIyN0qI-187" style="edgeStyle=orthogonalEdgeStyle;rounded=0;orthogonalLoop=1;jettySize=auto;html=1;exitX=0.5;exitY=0;exitDx=0;exitDy=0;endArrow=block;endFill=0;entryX=0.5;entryY=1;entryDx=0;entryDy=0;" parent="1" source="hrOBMZw275Sl7oIyN0qI-188" target="hrOBMZw275Sl7oIyN0qI-182" edge="1">
          <mxGeometry relative="1" as="geometry">
            <mxPoint x="2500" y="165" as="targetPoint" />
          </mxGeometry>
        </mxCell>
        <mxCell id="hrOBMZw275Sl7oIyN0qI-188" value="InvalidSnackException" style="html=1;whiteSpace=wrap;" parent="1" vertex="1">
          <mxGeometry x="2720" y="280" width="170" height="50" as="geometry" />
        </mxCell>
        <mxCell id="hrOBMZw275Sl7oIyN0qI-200" value="&lt;font style=&quot;font-size: 13px;&quot;&gt;&amp;lt;&amp;lt;throws&amp;gt;&amp;gt;&lt;/font&gt;" style="edgeStyle=orthogonalEdgeStyle;rounded=0;orthogonalLoop=1;jettySize=auto;html=1;exitX=1;exitY=0.5;exitDx=0;exitDy=0;entryX=0.5;entryY=1;entryDx=0;entryDy=0;dashed=1;endArrow=open;endFill=0;endSize=10;" parent="1" source="hrOBMZw275Sl7oIyN0qI-141" target="hrOBMZw275Sl7oIyN0qI-184" edge="1">
          <mxGeometry x="-0.7584" relative="1" as="geometry">
            <Array as="points">
              <mxPoint x="2360" y="929" />
              <mxPoint x="2360" y="490" />
              <mxPoint x="2335" y="490" />
            </Array>
            <mxPoint as="offset" />
          </mxGeometry>
        </mxCell>
        <mxCell id="hrOBMZw275Sl7oIyN0qI-201" value="&lt;font style=&quot;font-size: 13px;&quot;&gt;&amp;lt;&amp;lt;throws&amp;gt;&amp;gt;&lt;/font&gt;" style="edgeStyle=orthogonalEdgeStyle;rounded=0;orthogonalLoop=1;jettySize=auto;html=1;exitX=0;exitY=0.5;exitDx=0;exitDy=0;dashed=1;endArrow=open;endFill=0;entryX=0.5;entryY=1;entryDx=0;entryDy=0;endSize=10;" parent="1" source="hrOBMZw275Sl7oIyN0qI-133" target="hrOBMZw275Sl7oIyN0qI-184" edge="1">
          <mxGeometry x="-0.7467" relative="1" as="geometry">
            <mxPoint x="2320" y="410" as="targetPoint" />
            <Array as="points">
              <mxPoint x="1760" y="943" />
              <mxPoint x="1760" y="440" />
              <mxPoint x="2335" y="440" />
            </Array>
            <mxPoint as="offset" />
          </mxGeometry>
        </mxCell>
        <mxCell id="hrOBMZw275Sl7oIyN0qI-203" value="&lt;font style=&quot;font-size: 13px;&quot;&gt;0...*&lt;/font&gt;" style="edgeStyle=orthogonalEdgeStyle;rounded=0;orthogonalLoop=1;jettySize=auto;html=1;exitX=1;exitY=0.5;exitDx=0;exitDy=0;startArrow=classic;startFill=1;startSize=6;entryX=0;entryY=0.5;entryDx=0;entryDy=0;endArrow=diamond;endFill=0;endSize=10;" parent="1" source="hrOBMZw275Sl7oIyN0qI-177" target="hrOBMZw275Sl7oIyN0qI-116" edge="1">
          <mxGeometry x="0.0909" y="17" relative="1" as="geometry">
            <mxPoint x="2520" y="710" as="targetPoint" />
            <Array as="points">
              <mxPoint x="2300" y="675" />
              <mxPoint x="2300" y="747" />
            </Array>
            <mxPoint as="offset" />
          </mxGeometry>
        </mxCell>
        <mxCell id="hrOBMZw275Sl7oIyN0qI-205" value="&lt;font style=&quot;font-size: 13px;&quot;&gt;0...*&lt;/font&gt;" style="edgeStyle=orthogonalEdgeStyle;rounded=0;orthogonalLoop=1;jettySize=auto;html=1;exitX=0;exitY=0.5;exitDx=0;exitDy=0;entryX=1;entryY=0.5;entryDx=0;entryDy=0;startArrow=classic;startFill=1;startSize=6;endArrow=diamond;endFill=0;endSize=10;" parent="1" source="hrOBMZw275Sl7oIyN0qI-157" target="hrOBMZw275Sl7oIyN0qI-117" edge="1">
          <mxGeometry x="0.434" y="-13" relative="1" as="geometry">
            <Array as="points">
              <mxPoint x="2890" y="625" />
              <mxPoint x="2890" y="773" />
            </Array>
            <mxPoint as="offset" />
          </mxGeometry>
        </mxCell>
        <mxCell id="hrOBMZw275Sl7oIyN0qI-207" value="&amp;lt;&amp;lt;throws&amp;gt;&amp;gt;" style="edgeStyle=orthogonalEdgeStyle;rounded=0;orthogonalLoop=1;jettySize=auto;html=1;exitX=0;exitY=0.5;exitDx=0;exitDy=0;entryX=0.5;entryY=1;entryDx=0;entryDy=0;endArrow=open;endFill=0;dashed=1;endSize=10;" parent="1" source="hrOBMZw275Sl7oIyN0qI-164" target="hrOBMZw275Sl7oIyN0qI-188" edge="1">
          <mxGeometry x="-0.3899" relative="1" as="geometry">
            <Array as="points">
              <mxPoint x="2820" y="839" />
              <mxPoint x="2820" y="440" />
              <mxPoint x="2805" y="440" />
            </Array>
            <mxPoint as="offset" />
          </mxGeometry>
        </mxCell>
        <mxCell id="hrOBMZw275Sl7oIyN0qI-208" value="&lt;font style=&quot;font-size: 13px;&quot;&gt;&amp;lt;&amp;lt;throws&amp;gt;&amp;gt;&lt;/font&gt;" style="edgeStyle=orthogonalEdgeStyle;rounded=0;orthogonalLoop=1;jettySize=auto;html=1;exitX=1;exitY=0.5;exitDx=0;exitDy=0;entryX=0.5;entryY=1;entryDx=0;entryDy=0;dashed=1;endArrow=open;endFill=0;endSize=10;" parent="1" source="hrOBMZw275Sl7oIyN0qI-149" target="hrOBMZw275Sl7oIyN0qI-188" edge="1">
          <mxGeometry x="-0.0259" relative="1" as="geometry">
            <Array as="points">
              <mxPoint x="3290" y="839" />
              <mxPoint x="3290" y="440" />
              <mxPoint x="2805" y="440" />
            </Array>
            <mxPoint as="offset" />
          </mxGeometry>
        </mxCell>
        <mxCell id="hrOBMZw275Sl7oIyN0qI-214" value="&lt;font style=&quot;font-size: 13px;&quot;&gt;&amp;lt;&amp;lt;throws&amp;gt;&amp;gt;&lt;/font&gt;" style="edgeStyle=orthogonalEdgeStyle;rounded=0;orthogonalLoop=1;jettySize=auto;html=1;exitX=1;exitY=0.5;exitDx=0;exitDy=0;entryX=0.5;entryY=1;entryDx=0;entryDy=0;dashed=1;endArrow=open;endFill=0;" parent="1" source="hrOBMZw275Sl7oIyN0qI-145" target="hrOBMZw275Sl7oIyN0qI-186" edge="1">
          <mxGeometry x="-0.8664" relative="1" as="geometry">
            <Array as="points">
              <mxPoint x="2420" y="1015" />
              <mxPoint x="2420" y="400" />
              <mxPoint x="2585" y="400" />
            </Array>
            <mxPoint as="offset" />
          </mxGeometry>
        </mxCell>
        <mxCell id="hrOBMZw275Sl7oIyN0qI-215" value="&lt;font style=&quot;font-size: 13px;&quot;&gt;&amp;lt;&amp;lt;throws&amp;gt;&amp;gt;&lt;/font&gt;" style="edgeStyle=orthogonalEdgeStyle;rounded=0;orthogonalLoop=1;jettySize=auto;html=1;exitX=0;exitY=0.5;exitDx=0;exitDy=0;entryX=0.5;entryY=1;entryDx=0;entryDy=0;endArrow=open;endFill=0;dashed=1;endSize=10;" parent="1" source="hrOBMZw275Sl7oIyN0qI-136" target="hrOBMZw275Sl7oIyN0qI-186" edge="1">
          <mxGeometry x="-0.9504" relative="1" as="geometry">
            <Array as="points">
              <mxPoint x="1700" y="1021" />
              <mxPoint x="1700" y="400" />
              <mxPoint x="2585" y="400" />
            </Array>
            <mxPoint as="offset" />
          </mxGeometry>
        </mxCell>
      </root>
    </mxGraphModel>
  </diagram>
</mxfile>
